<?xml version="1.0" standalone="no"?>
<!DOCTYPE svg PUBLIC "-//W3C//DTD SVG 20010904//EN"
 "http://www.w3.org/TR/2001/REC-SVG-20010904/DTD/svg10.dtd">
<svg version="1.0" xmlns="http://www.w3.org/2000/svg"
 width="313.000000pt" height="313.000000pt" viewBox="0 0 313.000000 313.000000"
 preserveAspectRatio="xMidYMid meet">
<metadata>
Created by potrace 1.11, written by Peter Selinger 2001-2013
</metadata>
<g transform="translate(0.000000,313.000000) scale(0.100000,-0.100000)"
fill="#000000" stroke="none">
<path d="M1370 3110 c-25 -4 -63 -10 -85 -13 -22 -3 -47 -8 -55 -11 -8 -3 -26
-7 -40 -10 -61 -10 -224 -71 -325 -122 -408 -203 -708 -584 -815 -1034 -30
-124 -35 -177 -35 -365 1 -190 13 -275 61 -438 119 -399 415 -750 789 -936 67
-34 128 -61 134 -61 6 0 19 -4 29 -9 22 -13 134 -47 197 -60 694 -148 1393
177 1714 799 122 236 175 454 175 715 -1 245 -45 448 -143 660 -82 175 -173
301 -331 456 -232 229 -525 375 -850 423 -100 15 -344 18 -420 6z m476 -168
c409 -92 748 -342 943 -697 271 -491 227 -1077 -115 -1535 -52 -70 -248 -252
-324 -302 -96 -64 -244 -141 -290 -153 -3 0 -34 -11 -70 -23 -57 -19 -119 -35
-186 -48 -178 -34 -408 -23 -609 31 -120 33 -201 65 -309 125 -365 202 -617
549 -702 965 -19 93 -26 362 -12 455 84 565 486 1017 1038 1165 51 13 118 27
149 31 31 3 58 8 60 10 2 2 78 2 170 0 121 -3 191 -9 257 -24z"/>
<path d="M1927 1963 c-2 -5 -3 -34 -2 -65 2 -58 -2 -67 -22 -47 -6 6 -28 14
-49 19 -98 22 -174 -70 -161 -197 9 -100 48 -144 131 -151 87 -7 156 23 178
78 16 38 17 327 2 348 -12 18 -69 29 -77 15z m-22 -197 c37 -56 14 -160 -37
-168 -68 -11 -107 65 -77 149 18 52 85 63 114 19z"/>
<path d="M2507 1963 c-2 -5 -3 -105 -3 -223 l1 -215 45 0 45 0 2 205 c1 161
-2 208 -12 220 -15 17 -71 25 -78 13z"/>
<path d="M645 1870 c-57 -13 -93 -38 -105 -75 -9 -27 -17 -205 -11 -261 1 -6
19 -10 44 -10 l42 2 5 120 c5 128 14 154 54 154 12 0 31 -6 42 -14 17 -13 19
-28 21 -133 1 -65 2 -120 2 -123 1 -3 20 -6 44 -5 l42 0 5 128 c4 99 8 130 20
137 21 14 53 12 75 -4 16 -11 18 -29 20 -126 1 -123 9 -141 63 -137 l27 2 0
131 c0 107 -3 135 -18 157 -35 53 -118 75 -192 50 -27 -9 -47 -11 -65 -4 -39
15 -82 19 -115 11z"/>
<path d="M1495 1873 c-46 -11 -87 -37 -101 -65 -13 -25 -21 -169 -15 -268 1
-12 13 -16 46 -16 l45 0 0 122 c0 104 2 123 18 137 23 21 52 22 77 3 16 -12
19 -28 20 -126 1 -123 8 -138 62 -135 l28 1 1 123 c0 139 -10 174 -61 202 -34
19 -90 29 -120 22z"/>
<path d="M2244 1869 c-64 -18 -104 -97 -97 -197 6 -102 56 -152 150 -152 78 0
128 24 151 71 27 55 31 222 6 250 -19 21 -70 26 -76 7 -3 -8 -11 -7 -29 4 -34
22 -69 27 -105 17z m111 -100 c24 -23 27 -117 5 -144 -56 -68 -133 -12 -124
89 7 76 68 104 119 55z"/>
<path d="M1060 1744 c0 -144 12 -182 63 -206 80 -36 204 -9 225 50 5 15 8 83
8 152 l-1 125 -25 3 c-14 2 -33 -3 -44 -11 -16 -12 -18 -27 -18 -121 0 -93 -2
-110 -19 -127 -24 -24 -54 -24 -78 0 -16 16 -19 35 -19 127 0 60 -1 114 -1
120 -1 7 -20 12 -46 12 l-45 1 0 -125z"/>
<path d="M2044 1858 c-9 -14 -9 -311 -1 -325 3 -5 23 -9 44 -8 l38 1 3 153 c2
133 0 156 -14 172 -19 21 -59 25 -70 7z"/>
<path d="M730 1330 c0 -59 4 -100 10 -101 6 -1 19 -1 30 -1 34 0 40 2 40 12 0
5 -12 8 -27 7 l-28 -2 -3 93 c-4 125 -22 119 -22 -8z"/>
<path d="M1096 1415 c4 -8 10 -12 15 -9 14 8 10 24 -6 24 -9 0 -12 -6 -9 -15z"/>
<path d="M1330 1414 c0 -8 5 -12 10 -9 6 3 10 10 10 16 0 5 -4 9 -10 9 -5 0
-10 -7 -10 -16z"/>
<path d="M1679 1414 c-30 -15 -38 -32 -45 -87 -4 -32 0 -42 25 -67 18 -18 41
-30 58 -31 31 -1 77 2 80 5 3 3 6 76 4 94 -2 19 -81 16 -81 -3 0 -8 8 -15 19
-15 10 0 21 -9 24 -19 6 -25 0 -31 -29 -31 -31 0 -64 44 -58 78 8 42 29 57 77
54 32 -1 44 2 44 13 0 25 -77 31 -118 9z"/>
<path d="M1251 1385 c-17 -19 -19 -25 -8 -25 12 0 15 -12 15 -53 -1 -30 2 -59
6 -65 9 -15 46 -16 46 -1 0 5 -5 7 -10 4 -13 -8 -23 17 -22 58 0 53 1 57 17
57 8 0 15 5 15 10 0 6 -6 10 -14 10 -8 0 -16 7 -18 15 -2 11 -9 8 -27 -10z"/>
<path d="M846 1361 c-23 -25 -21 -96 3 -120 21 -21 52 -19 72 6 18 20 19 85 3
107 -18 25 -59 28 -78 7z m68 -44 c8 -33 7 -41 -12 -59 -17 -18 -23 -19 -36
-8 -9 7 -16 28 -16 49 0 69 48 82 64 18z"/>
<path d="M988 1373 c-17 -4 -34 -53 -29 -88 1 -11 9 -30 17 -42 12 -19 18 -21
39 -13 21 8 25 7 25 -10 0 -23 -18 -35 -47 -31 -13 1 -23 -2 -23 -8 0 -21 60
-16 78 7 15 20 17 192 1 192 -5 0 -7 -5 -3 -11 5 -8 1 -8 -14 0 -11 6 -22 10
-24 10 -2 -1 -11 -3 -20 -6z m40 -25 c19 -19 15 -86 -6 -97 -26 -14 -42 4 -42
45 0 59 20 80 48 52z"/>
<path d="M1099 1374 c-5 -68 -2 -138 7 -141 11 -4 13 132 1 143 -4 4 -7 3 -8
-2z"/>
<path d="M1153 1354 c-16 -26 -16 -26 22 -58 30 -26 35 -35 24 -42 -8 -4 -25
-7 -39 -5 -20 2 -22 1 -12 -12 26 -30 91 8 77 45 -3 8 -19 22 -36 32 -24 14
-28 20 -18 32 6 8 21 14 32 14 24 0 15 13 -13 17 -12 2 -26 -7 -37 -23z"/>
<path d="M1330 1305 c0 -43 4 -75 10 -75 6 0 10 32 10 75 0 43 -4 75 -10 75
-6 0 -10 -32 -10 -75z"/>
<path d="M1420 1373 c-65 -23 -47 -143 21 -143 16 0 29 5 29 10 0 6 -10 10
-23 10 -32 0 -47 18 -47 57 0 36 26 58 56 46 12 -4 15 -2 12 8 -5 16 -25 21
-48 12z"/>
<path d="M1495 1364 c-21 -22 -19 -32 15 -62 17 -15 30 -32 30 -38 0 -17 -22
-23 -42 -12 -13 6 -18 5 -18 -7 0 -21 66 -21 74 1 12 31 5 49 -24 66 -33 19
-32 54 1 45 11 -3 19 0 19 7 0 17 -37 17 -55 0z"/>
<path d="M1837 1373 c-4 -3 -7 -37 -7 -74 0 -58 3 -67 20 -72 17 -4 19 1 22
47 2 42 7 53 26 61 23 10 29 29 12 40 -6 4 -17 1 -25 -5 -11 -9 -15 -9 -15 -1
0 12 -23 15 -33 4z"/>
<path d="M1960 1369 c-31 -13 -40 -26 -40 -66 0 -44 30 -73 76 -73 69 0 99 76
49 125 -26 27 -45 30 -85 14z m66 -55 c7 -28 -10 -54 -36 -54 -32 0 -42 62
-13 78 23 14 42 4 49 -24z"/>
<path d="M2090 1322 c0 -32 6 -65 13 -74 14 -19 46 -26 64 -15 7 4 21 3 32 -3
26 -13 27 -8 27 75 -1 63 -3 70 -21 70 -16 0 -19 -7 -20 -48 -2 -52 -15 -73
-39 -64 -12 5 -16 21 -16 62 0 48 -2 55 -20 55 -18 0 -20 -7 -20 -58z"/>
<path d="M2255 1273 c0 -60 4 -107 8 -105 4 1 13 2 20 2 9 0 12 11 9 35 -4 34
-3 35 19 26 24 -9 62 0 72 16 3 5 8 22 11 37 11 60 -34 108 -80 87 -15 -6 -24
-7 -24 -1 0 6 -8 10 -18 10 -16 0 -18 -11 -17 -107z m98 48 c6 -25 -10 -61
-28 -61 -8 0 -20 12 -25 26 -13 32 -13 30 5 48 18 18 41 12 48 -13z"/>
</g>
</svg>
